<?xml version="1.0" standalone="no"?><!DOCTYPE svg PUBLIC "-//W3C//DTD SVG 1.1//EN" "http://www.w3.org/Graphics/SVG/1.1/DTD/svg11.dtd"><svg t="1666879822673" class="icon" viewBox="0 0 1024 1024" version="1.1" xmlns="http://www.w3.org/2000/svg" p-id="6343" xmlns:xlink="http://www.w3.org/1999/xlink" width="200" height="200"><path d="M501.5 491.4l0.8 0.8-0.8-0.8z m2.7-3.1l-0.3 2.6c-0.4 1-1 1.4-1.6 1.3l1.9-3.9z m0.8-6.3l-0.2 5.1-0.6 1.2 0.8-6.3z m-26.2-71.9l3.4 11.5 1.6 6.1-5-17.6z m67.1-10.9l-24.3 90.7 17.8-68.3 6.5-22.4z m-83.8-45.6l2 6.4 2.6 9-4.6-15.4z m97.4 0l-4.7 15.4 2.7-9 2-6.4z m22.5-69l-7.2 21.2 7.2-21.2zM456 93h109.5v3.6c-1.9 70.4-24.6 143.3-32.7 203.2-8.2 59.9-21.3 177.5-15.1 191.1l3.9-1-3.6 0.9V926h-13V482l0.4-10c-0.4-38.8-10.2-124.2-16.7-172.3-8.1-59.9-30.7-132.8-32.7-203.1V93z" fill="#FBF5E8" p-id="6344"></path><path d="M518 928h-13c-1.1 0-2-0.9-2-2V494.1c-0.5 0.1-0.9 0-1.2 0-0.4-0.1-0.7-0.3-1-0.5l-0.8-0.8c-0.4-0.4-0.6-0.9-0.6-1.4 0-0.5 0.2-1 0.6-1.4 0.4-0.4 0.9-0.6 1.4-0.6l0.9-1.7 0.8-5.9 0.4-9.9c-0.4-39.1-10.2-124.2-16.7-172-3-22-7.9-45.6-13.1-70.5-9-43.4-18.4-88.2-19.6-132.9v-3.6c0-0.5 0.2-1 0.6-1.4s0.9-0.6 1.4-0.6h109.5c0.5 0 1 0.2 1.4 0.6 0.4 0.4 0.6 0.9 0.6 1.4v3.6C566.4 141.2 557 186 548 229.4c-5.2 25-10.1 48.5-13.1 70.5-9.1 67-20.1 170.5-15.8 188.5l1-0.2 17.5-67.2 6.6-22.4c0.3-1 1.4-1.7 2.5-1.4 1.1 0.3 1.7 1.4 1.4 2.4l-24.3 90.6c-0.2 0.7-0.7 1.3-1.5 1.5l-2.1 0.5V926c-0.2 1.1-1.1 2-2.2 2z m-11-4h8.9V491.9c0-0.1-0.1-0.1-0.1-0.2-7.1-15.6 8.8-147.3 15-192.2 3-22.1 7.9-45.8 13.2-70.8 9-43.2 18.3-87.9 19.5-132.2V95H458v1.5c1.2 44.2 10.5 88.9 19.5 132.1 5.2 25 10.2 48.7 13.2 70.8 6.5 47.8 16.4 133.3 16.7 172.5v0.1l-0.4 10v442z m-23.2-494.3c-0.9 0-1.7-0.6-1.9-1.5l-5-17.6c-0.3-1.1 0.3-2.2 1.4-2.5 1.1-0.3 2.2 0.3 2.5 1.4l3.4 11.5 1.6 6.2c0.3 1.1-0.4 2.1-1.4 2.4-0.3 0.1-0.5 0.1-0.6 0.1z m71-58.7c-0.2 0-0.4 0-0.6-0.1-1.1-0.3-1.7-1.4-1.3-2.5l2.7-9 2.1-6.4c0.3-1 1.5-1.6 2.5-1.3 1 0.3 1.6 1.4 1.3 2.5l-4.7 15.4c-0.4 0.8-1.1 1.4-2 1.4z m-88.1 0c-0.9 0-1.6-0.6-1.9-1.4l-4.7-15.4c-0.3-1.1 0.3-2.2 1.3-2.5 1-0.3 2.2 0.3 2.5 1.3l2 6.4 2.7 9.1c0.3 1.1-0.3 2.2-1.3 2.5h-0.6z m108.1-63.2c-0.2 0-0.5 0-0.7-0.1-0.8-0.3-1.3-1.1-1.3-1.9 0-0.2 0-0.5 0.1-0.7l7.2-21.1c0.4-1 1.5-1.6 2.5-1.3 0.8 0.3 1.4 1.1 1.4 1.9 0 0.2 0 0.4-0.1 0.6l-7.2 21.2v0.1c-0.3 0.8-1.1 1.3-1.9 1.3z" fill="#404040" p-id="6345"></path><path d="M339.5 202.4l-1.3 17.7v362.2l-8.7 31.7c-8.3 22.5-102.9-0.8-95.7-26.2l105.7-385.4z" fill="#C8E8E6" p-id="6346"></path><path d="M306.1 625c-12.5 0-27.2-2.9-39-6.7-25.3-8.2-38.4-19.9-35.2-31.2l105.7-385.3a2 2 0 0 1 2.3-1.4c1 0.2 1.7 1.1 1.7 2.1l-1.3 17.6v362.1c0 0.2 0 0.4-0.1 0.5l-8.7 31.7c0 0.1 0 0.1-0.1 0.2-2.8 7.6-12.9 10.4-25.3 10.4z m30.1-403.1L235.7 588.2c-2.5 8.7 10.3 19 32.6 26.3 24.8 8.1 55.2 9.6 59.3-1.2l8.6-31.3V221.9z" fill="#404040" p-id="6347"></path><path d="M683 198.8l107.8 392.9c6.5 17-92.1 47.1-95.7 26.2l-10.4-38V220.1c0-7.2-0.5-14.1-1.5-20.7l-0.2-0.6z" fill="#C8E8E6" p-id="6348"></path><path d="M711.5 627.1c-4 0-7.6-0.4-10.5-1.2-5.7-1.7-7.5-4.9-8-7.4l-10.4-37.9c0-0.2-0.1-0.4-0.1-0.5v-360c0-7-0.5-13.8-1.5-20.3l-0.1-0.5c-0.2-1 0.4-2.1 1.4-2.4 1.1-0.3 2.2 0.3 2.5 1.4l107.7 392.8c0.7 2 0.8 5.2-2.9 9.3-11 12-53.4 26.7-78.1 26.7z m-24.9-47.4l10.4 37.7v0.2c0.1 0.7 0.5 3 5.2 4.4 17.8 5.3 71.5-10.2 84.6-24.3 1.9-2.1 2.6-3.8 2.1-5.2 0-0.1 0-0.1-0.1-0.2L686.6 219.6v360.1z" fill="#404040" p-id="6349"></path><path d="M613 110l6.4 2.8c40.3 20.7 65.6 57.1 65.5 107.4V892c0 35.9-74.8 65-167 65V491.1l3.7-0.9c46.5-190.6 106.7-315.7 95.9-322.4l-26.8-16.2 19.8-7.7c1.9-1.1 3-11.4 3.1-21.8L613 110z" fill="#C8E8E6" p-id="6350"></path><path d="M518 959c-1.1 0-2-0.9-2-2V491.1c0-0.9 0.6-1.7 1.5-1.9l2.5-0.6c25.7-105.2 55.6-190.2 75.3-246.6 7.8-22.1 13.9-39.6 17.6-52.1 5.1-17 4-19.9 3.6-20.4l-26.7-16.2c-0.7-0.4-1-1.1-1-1.9s0.6-1.4 1.3-1.7l19.4-7.6c0.9-1.5 2.1-8.6 2.2-20.1l-0.6-12c0-0.7 0.3-1.3 0.9-1.7s1.3-0.5 1.9-0.2l6.4 2.8s0.1 0 0.1 0.1c43 22.1 66.7 60.9 66.6 109.2V892c0 18.2-17.8 35.2-50.2 47.8C605 952.2 562.8 959 518 959z m2-466.3V955c43.6-0.2 84.5-6.9 115.4-18.9 30.7-12 47.6-27.6 47.6-44.1V220.2c0.1-46.7-22.8-84.2-64.4-105.6l-3.4-1.5 0.4 8.8v0.1c-0.1 7.9-0.7 21.5-4 23.5-0.1 0.1-0.2 0.1-0.3 0.1l-16 6.3 23.3 14.1c5.9 3.7 0 21.5-19.5 77.2-19.8 56.5-49.7 141.8-75.5 247.4-0.2 0.7-0.7 1.3-1.5 1.5l-2.1 0.6z m89.3-350.4z" fill="#404040" p-id="6351"></path><path d="M408.5 111l-0.5 11.4c0.1 10.4 1.2 20.7 3.1 21.8l19.8 7.7-26.8 16.2c-10.8 6.7 49.4 131.7 95.9 322.3 1.8 2.8 3.1 2.9 4 1l1.2-8.9V957c-92.2 0-167-29.1-167-65V220.5c-0.1-50.3 25.3-86.6 65.5-107.4l4.8-2.1z" fill="#C8E8E6" p-id="6352"></path><path d="M505 959c-44.8 0-87-6.8-118.8-19.2-32.4-12.6-50.2-29.5-50.2-47.8V220.5c-0.1-48.2 23.6-87 66.6-109.1 0 0 0.1 0 0.1-0.1l4.9-2.2c0.6-0.3 1.4-0.2 1.9 0.2 0.6 0.4 0.9 1 0.9 1.7l-0.5 11.3c0.1 11.5 1.3 18.6 2.2 20.1l19.4 7.6c0.7 0.3 1.2 0.9 1.3 1.7 0.1 0.8-0.3 1.5-1 1.9L405 169.9c-0.4 0.4-1.4 3.3 3.6 20.3 3.7 12.6 9.9 30 17.6 52.1 19.8 56.5 49.7 141.7 75.5 247.3 0.1 0.1 0.2 0.3 0.3 0.4l1-7.7c0.1-1 1.1-1.8 2.1-1.7 1.1 0.1 1.9 0.9 1.9 2V957c0 1.1-0.9 2-2 2zM404.4 115c-41.6 21.4-64.5 58.9-64.4 105.6V892c0 16.5 16.9 32.1 47.6 44.1 30.8 12 71.7 18.7 115.4 18.9V494.6c-0.1 0-0.3 0-0.4 0.1-2 0.1-3.5-1.8-4.4-3.2l-0.3-0.6c-25.8-105.5-55.7-190.8-75.5-247.3-19.5-55.7-25.4-73.5-19.6-77.2l23.4-14.1-16-6.3c-0.1 0-0.2-0.1-0.3-0.1-3.4-2-4-15.6-4-23.5v-0.1l0.4-8.2-1.9 0.9z" fill="#404040" p-id="6353"></path><path d="M456.1 67l-44.8 32.4c-4.4 3.1-3.7 42.1 0 44.3l19.6 7.7-26.6 16.2c-10.7 6.7 49 131.7 95.2 322.1 14 22-1.9-121.6-11.2-189.9-9.4-68.3-37.6-153.7-32.2-232.8z" fill="#F9DEDD" p-id="6354"></path><path d="M502 494c-1.4 0-2.8-1.1-4.2-3.2l-0.3-0.6C472 384.7 442.3 299.5 422.6 243c-19.4-55.7-25.3-73.5-19.4-77.2l23.2-14.1-15.9-6.3c-0.1 0-0.2-0.1-0.3-0.1-0.9-0.5-3.2-2-3.9-18.6-0.2-4.3-0.8-25.8 3.8-29l44.8-32.3c0.6-0.5 1.5-0.5 2.1-0.1 0.7 0.4 1.1 1.1 1 1.9-3.6 53.4 8.4 110.9 19 161.7 5.2 25 10.2 48.6 13.2 70.7 3.9 28.7 9.8 77 13.5 118.5 6.5 73.1 1.8 74.8-0.7 75.8-0.3 0-0.7 0.1-1 0.1z m-0.7-5.1c0.2 0.2 0.3 0.4 0.4 0.6 1.2-3 2.9-16.2-2.3-73.7-3.7-40.9-9.4-87.9-13.2-115.7-3-21.9-7.9-45.5-13.1-70.4C462.8 180 451 123.8 453.8 71.1L412.4 101c-0.9 1-2.3 8-2.2 20.5 0.1 11.8 1.3 19 2.2 20.5l19.2 7.6c0.7 0.3 1.2 0.9 1.3 1.7 0.1 0.8-0.3 1.5-1 1.9l-26.6 16.2c-0.4 0.4-1.4 3.3 3.6 20.4 3.7 12.5 9.8 30 17.5 52.1 19.6 56.3 49.3 141.5 74.9 247z m-88.8-346.8z" fill="#404040" p-id="6355"></path><path d="M565.4 67l45.2 32.4c4.4 3.1 3.8 42.1 0 44.3l-19.8 7.7 26.9 16.2c10.8 6.7-49.5 131.7-96.1 322.1-14.1 22 1.9-121.6 11.3-189.9 9.4-68.3 37.9-153.7 32.5-232.8z" fill="#F9DEDD" p-id="6356"></path><path d="M519.1 494c-0.4 0-0.7-0.1-1.1-0.2-2.5-0.9-7.2-2.7-0.7-75.8 3.7-41.5 9.6-89.8 13.6-118.5 3-22.1 8-45.7 13.3-70.7 10.7-50.8 22.9-108.3 19.2-161.7-0.1-0.8 0.3-1.5 1-1.9 0.7-0.4 1.5-0.3 2.1 0.1l45.2 32.4c4.5 3.2 4 24.7 3.8 28.9-0.6 16.8-3 18.2-3.9 18.7-0.1 0.1-0.2 0.1-0.3 0.1l-16 6.3 23.4 14.1c5.9 3.7 0 21.5-19.6 77.2-19.8 56.4-49.8 141.7-75.6 247.2-0.1 0.2-0.1 0.4-0.3 0.6-1.3 2.1-2.7 3.2-4.1 3.2z m48.6-422.9c2.8 52.7-9 108.9-19.5 158.6-5.3 24.9-10.2 48.5-13.3 70.4-3.8 27.8-9.6 74.8-13.4 115.7-5.2 57.7-3.4 70.8-2.3 73.7 0.1-0.2 0.3-0.4 0.5-0.6 25.8-105.5 55.8-190.8 75.7-247.2 7.8-22.1 13.9-39.5 17.6-52.1 5.1-17 4-19.9 3.6-20.4l-26.8-16.1c-0.7-0.4-1-1.1-1-1.9 0.1-0.8 0.6-1.4 1.3-1.7l19.4-7.6c0.9-1.5 2.1-8.7 2.2-20.5 0.1-12.4-1.3-19.5-2.3-20.5l-41.7-29.8z m41.7 71z" fill="#404040" p-id="6357"></path><path d="M455.6 67h109.7c0.3 4.9 0.5 9.8 0.6 14.7V93H455.1c0-3.8 0-7.5-0.1-11.3 0.1-4.9 0.3-9.8 0.6-14.7z" fill="#F9DEDD" p-id="6358"></path><path d="M565.9 95H455.1c-1.1 0-2-0.9-2-2l-0.1-11.3c0.1-5.1 0.3-10.1 0.6-14.8 0.1-1 0.9-1.9 2-1.9h109.7c1.1 0 1.9 0.8 2 1.9 0.3 4.8 0.5 9.8 0.6 14.8V93c0 1.1-0.9 2-2 2z m-108.8-4H564l0.1-9.3c-0.1-4.3-0.2-8.5-0.5-12.7h-106c-0.3 4.1-0.4 8.4-0.5 12.7V91z" fill="#404040" p-id="6359"></path><path d="M504.7 485c-0.9 0-1.7-0.6-1.9-1.5l-6.1-23.3c-0.3-1.1 0.4-2.2 1.4-2.4 1.1-0.3 2.2 0.4 2.4 1.4l4.7 17.9c1 0.1 1.8 1.1 1.7 2.1l-0.3 3.9c-0.1 1-0.8 1.8-1.8 1.9h-0.1z m-10-38.8c-0.9 0-1.7-0.6-1.9-1.5l-5.9-22.6c-0.4-1.5-0.8-2.9-1.2-4.4-0.3-1.1 0.3-2.2 1.4-2.5 1.1-0.3 2.2 0.3 2.5 1.4 0.4 1.5 0.8 3 1.2 4.4l5.9 22.7c0.3 1.1-0.4 2.2-1.4 2.4-0.3 0.1-0.5 0.1-0.6 0.1z m-11.5-42.5c-0.9 0-1.7-0.6-1.9-1.4-2.6-8.9-5.2-17.9-7.9-26.8-0.3-1.1 0.3-2.2 1.3-2.5 1.1-0.3 2.2 0.3 2.5 1.3 2.7 9 5.4 18 7.9 26.9 0.3 1.1-0.3 2.2-1.4 2.5h-0.5z m-12.6-42.1c-0.9 0-1.6-0.6-1.9-1.4-2.7-8.8-5.5-17.7-8.4-26.7-0.3-1.1 0.2-2.2 1.3-2.5 1.1-0.3 2.2 0.2 2.5 1.3 2.9 9 5.7 18 8.4 26.7 0.3 1.1-0.3 2.2-1.3 2.5-0.2 0-0.4 0.1-0.6 0.1z m-13.4-42c-0.8 0-1.6-0.5-1.9-1.4-2.8-8.7-5.7-17.4-8.8-26.5-0.4-1 0.2-2.2 1.3-2.5 1-0.4 2.2 0.2 2.5 1.3 3.1 9.2 6 17.9 8.9 26.6 0.3 1-0.2 2.2-1.3 2.5h-0.7z m-14-41.7c-0.8 0-1.6-0.5-1.9-1.4-3.3-9.7-6.5-18.8-9.2-26.5-0.4-1 0.2-2.2 1.2-2.5 1-0.4 2.2 0.2 2.5 1.2 2.7 7.6 5.8 16.7 9.2 26.5 0.4 1-0.2 2.2-1.2 2.5-0.1 0.2-0.4 0.2-0.6 0.2z m-14.4-41.5c-0.8 0-1.6-0.5-1.9-1.3-3.6-10.4-6.6-18.9-9.1-26.5-0.3-1 0.2-2.2 1.3-2.5 1-0.3 2.2 0.2 2.5 1.3 2.5 7.6 5.4 16.1 9.1 26.5 0.4 1-0.2 2.2-1.2 2.5-0.3-0.1-0.5 0-0.7 0z m-13.9-41.8c-0.9 0-1.7-0.6-1.9-1.4-2.7-9.1-4-15.1-4-18.9 0-1 0-4.2 2.2-5.5l4.2-2.7c0.9-0.6 2.2-0.3 2.8 0.6 0.6 0.9 0.3 2.2-0.6 2.8l-4.2 2.7s-0.4 0.4-0.4 2.2c0 3.3 1.2 9.1 3.8 17.7 0.3 1.1-0.3 2.2-1.4 2.5h-0.5z m15-33.5c-0.7 0-1.3-0.3-1.7-0.9-0.6-0.9-0.3-2.2 0.6-2.8l9.4-6.1c-2.6-1.2-5.6-2.7-8.5-4.1-1-0.5-1.4-1.7-0.9-2.7 0.5-1 1.7-1.4 2.7-0.9 4.2 2.1 8.5 4.2 11.7 5.5 0.7 0.3 1.2 0.9 1.3 1.7 0.1 0.7-0.3 1.5-0.9 1.9l-12.6 8.1c-0.3 0.2-0.7 0.3-1.1 0.3z m-12.6-21.5c-0.8 0-1.6-0.5-1.9-1.4-1.4-4.3-1.9-12.5-1.9-18.7 0-3.6 0.2-7.1 0.5-10 0.1-1.1 1.1-1.9 2.2-1.8 1.1 0.1 1.9 1.1 1.8 2.2-0.3 2.8-0.4 6.1-0.4 9.6 0 7.4 0.7 14.2 1.7 17.4 0.3 1.1-0.2 2.2-1.3 2.5-0.3 0.2-0.5 0.2-0.7 0.2z m6.7-40.4c-0.6 0-1.3-0.3-1.7-0.9-0.6-0.9-0.4-2.2 0.5-2.8L446 79.8c0.9-0.6 2.2-0.4 2.8 0.5 0.6 0.9 0.4 2.2-0.5 2.8l-23.1 15.8c-0.4 0.2-0.8 0.3-1.2 0.3z" fill="#404040" p-id="6360"></path><path d="M516.3 485h-0.2c-1-0.1-1.7-0.9-1.8-1.9l-0.3-3.9c-0.1-1.1 0.7-2 1.7-2.1l4.7-17.9c0.3-1.1 1.4-1.7 2.4-1.4 1.1 0.3 1.7 1.4 1.4 2.4l-6.1 23.3c-0.1 0.9-0.9 1.5-1.8 1.5z m10.2-38.8c-0.2 0-0.3 0-0.5-0.1-1.1-0.3-1.7-1.4-1.4-2.4l5.9-22.6 1.3-4.5c0.3-1.1 1.4-1.7 2.5-1.4 1.1 0.3 1.7 1.4 1.4 2.5l-1.3 4.4-5.9 22.6c-0.3 0.9-1.2 1.5-2 1.5z m11.6-42.4c-0.2 0-0.4 0-0.6-0.1-1.1-0.3-1.7-1.4-1.4-2.5 2.6-8.8 5.3-17.9 8-26.9 0.3-1.1 1.4-1.7 2.5-1.3 1.1 0.3 1.7 1.4 1.3 2.5-2.7 9-5.4 18-8 26.8-0.2 0.9-1 1.5-1.8 1.5z m12.7-42.1c-0.2 0-0.4 0-0.6-0.1-1.1-0.3-1.6-1.5-1.3-2.5 2.7-8.8 5.6-17.8 8.5-26.7 0.3-1 1.5-1.6 2.5-1.3 1.1 0.3 1.6 1.5 1.3 2.5-2.9 8.9-5.8 17.9-8.5 26.7-0.3 0.8-1.1 1.4-1.9 1.4z m13.5-41.9c-0.2 0-0.4 0-0.6-0.1-1-0.3-1.6-1.5-1.3-2.5 2.9-8.7 5.8-17.4 8.9-26.6 0.4-1 1.5-1.6 2.5-1.2 1 0.4 1.6 1.5 1.2 2.5-3.1 9.2-6.1 17.8-8.9 26.5-0.2 0.9-1 1.4-1.8 1.4z m14.1-41.7c-0.2 0-0.4 0-0.7-0.1-1-0.4-1.6-1.5-1.2-2.5 3.4-9.7 6.6-18.8 9.3-26.4 0.4-1 1.5-1.6 2.6-1.2s1.6 1.5 1.2 2.6c-2.7 7.6-5.9 16.7-9.3 26.4-0.3 0.7-1.1 1.2-1.9 1.2z m14.6-41.5c-0.2 0-0.4 0-0.7-0.1-1-0.4-1.6-1.5-1.2-2.6 3.7-10.4 6.6-18.9 9.2-26.4 0.4-1 1.5-1.6 2.5-1.3 1 0.4 1.6 1.5 1.3 2.5-2.5 7.6-5.5 16.1-9.2 26.5-0.3 0.9-1.1 1.4-1.9 1.4z m14.1-41.7c-0.2 0-0.4 0-0.6-0.1-1.1-0.3-1.7-1.4-1.3-2.5 2.6-8.7 3.9-14.5 3.9-17.8 0-1.7-0.4-2.2-0.4-2.2l-4.2-2.6c-0.9-0.6-1.2-1.8-0.6-2.8 0.6-0.9 1.8-1.2 2.8-0.6l4.2 2.7c2.2 1.4 2.2 4.5 2.2 5.5 0 3.7-1.3 9.7-4 18.9-0.4 1-1.2 1.5-2 1.5zM592 161.5c-0.4 0-0.7-0.1-1.1-0.3L578 153c-0.6-0.4-1-1.1-0.9-1.9s0.6-1.4 1.3-1.7c3.2-1.3 7.7-3.5 11.4-5.3 1-0.5 2.2-0.1 2.7 0.9s0.1 2.2-0.9 2.7c-3.1 1.5-5.8 2.8-8.1 3.9l9.7 6.2c0.9 0.6 1.2 1.8 0.6 2.8-0.5 0.6-1.1 0.9-1.8 0.9z m12.5-21.1c-0.2 0-0.5 0-0.7-0.1-1-0.4-1.5-1.6-1.1-2.6 1.1-2.8 1.9-9.7 1.9-17.2 0-3.6-0.2-6.9-0.5-9.7-0.1-1.1 0.7-2.1 1.8-2.2 1.1-0.1 2.1 0.7 2.2 1.8 0.3 2.9 0.5 6.4 0.5 10.1 0 6.4-0.6 14.6-2.1 18.6-0.5 0.9-1.2 1.3-2 1.3z m-7-40.2c-0.4 0-0.8-0.1-1.2-0.4l-22.7-16.3c-0.9-0.6-1.1-1.9-0.5-2.8 0.6-0.9 1.9-1.1 2.8-0.5l22.7 16.3c0.9 0.6 1.1 1.9 0.5 2.8-0.4 0.6-1 0.9-1.6 0.9z" fill="#404040" p-id="6361"></path></svg>